<svg xmlns="http://www.w3.org/2000/svg" width="213.333" height="213.333" version="1.0" viewBox="0 0 160 160"><path d="M0 26.5V53h5.3c5 0 5.3.1 5.5 2.7.5 5.8 11.3 25 13.4 23.7.4-.3 1.1.2 1.4 1 .9 2.5 2.6 1.9 1.9-.7-.6-2.1-.6-2.1.9-.3.9 1.1 1.6 2.4 1.6 2.9 0 .4.4.6.9.3s1.2.4 1.6 1.7l.7 2.2.8-2.5c.4-1.4.9-1.8.9-1 .2 1.4 6.3 6 8.1 6 1.2 0 1.8 4.6.8 6.4-.5.8-.7 6-.6 11.5.3 9.9.3 10-2.7 13.1-1.6 1.8-4.6 4-6.6 5-1.9 1-4.1 2.6-4.9 3.5-.9 1.1-2.2 1.4-4 1-1.5-.3-4.5-.2-6.7.3-2.5.6-4.7.6-5.7 0-1.8-1-5.6 1.4-5.6 3.6 0 .6-1.6 2.4-3.5 3.9l-3.6 2.9 3.8 2.7c2.1 1.6 4.7 3.8 5.7 5 1.1 1.1 2.5 2.1 3.2 2.1 1.9 0 2.9 4.7 1.6 7.3l-1.1 2.2v-2.3c-.1-1.2-.7-2.2-1.4-2.2-2.2 0-2.8 1.2-1.5 2.9.7.9-1-.5-3.7-3.2-2.7-2.6-5.3-4.7-5.7-4.7-.4 0-.8 2-.8 4.4 0 5.3.6 5.6 10.1 5.6H17l-.5-4.8c-.3-2.6-.8-5.5-1.1-6.6-.4-1.1-.2-1.6.4-1.2 1.6 1 2.4-1.1 1.7-4.6-.5-2.2-1-2.7-1.6-1.7-.4.8-.3 1.9.3 2.6.8 1 .7 1.3-.5 1.3-2.2 0-3-4.2-1-5.7 1.5-1.2 1.4-1.3-.9-1.3-2.5 0-4.4-2.3-3.2-4.1.3-.5 0-.9-.5-.9-.6 0-1.1-.5-1.1-1 0-1.9 4.6-1 6.8 1.3 2.8 2.9 6.8 12.1 8.8 20.2 1.5 6.1 1.8 6.5 4.5 6.5 2.2 0 2.9-.5 2.9-2 0-1.1.5-2 1.1-2 .6 0 .8.9.4 2-.4 1.4-.2 2 .8 2 2.1 0 .9-5-1.2-5-2.1-.1 3.7-5 6-5 2.4 0 7.1 5.4 6.3 7.3-.3 1-1.4 1.7-2.3 1.6-.9 0-1.1-.3-.4-.6 1-.3 1-.7 0-1.8-1.5-1.6-2.7-1-2.7 1.6 0 1.5.7 1.9 3.3 1.9 2.8 0 3.4-.4 4.2-3.3 1.3-4.1 3.6-4.1 5.5 0l1.5 3.3h101.8l-.5-9.3c-.8-14.9-6.6-23.7-18.3-27.7-5.6-1.9-7.4-2-25.2-1.4-26.2 1-26.9.6-24.1-11.6 1-4.3 1.9-5.6 5.2-8 2.3-1.5 5.7-4.4 7.5-6.4 1.9-2 4.1-3.6 4.8-3.6 1.5 0 1.7 1.6.3 2.5-.5.3-1 1.1-1 1.7 0 .6.9.3 2-.7s2.3-1.6 2.6-1.3c.3.3-1.4 2.3-3.8 4.3-2.4 2.1-3.4 3.4-2.3 3 1.1-.4 3.6-1 5.5-1.3 1.9-.2 4.2-1.1 5.1-1.9 1.4-1.1 1.8-1.2 2.1-.1.3.8 1.4-.1 2.7-2.2l2.3-3.5-.5 3c-.3 1.6-.9 3.8-1.2 4.7-.4 1-.3 1.8.3 1.8 1.3 0 4.2-6.2 4.2-8.8 0-1.2.5-2.4 1-2.7.6-.3 1 0 1 .7 0 .8.7 2.3 1.5 3.4 1.4 1.8 1.4 1.7.5-1-.9-2.5-.8-2.8.7-2.1 3.2 1.2 21.7 5.5 26.6 6.1l4.7.7v-52l-7.6-2.3c-4.2-1.2-11-2.8-15.2-3.5l-7.7-1.2 6-.8c4.8-.6 7.3-.4 13.2 1.4 9.6 2.8 11.3 2.7 11.3-.3 0-2.2-.6-2.6-4.7-3.2-6.2-.9-25 .2-33.8 2-3.8.8-11.3 1.7-16.5 2-7.8.4-8.6.3-4.5-.5 2.8-.5 13.1-2.5 23-4.4 9.9-1.9 22.2-4 27.3-4.6l9.2-1.3V16.7l-4.7.7c-2.7.4-6.7.9-9 1.3-3.9.5-4.2.4-5.8-2.7-1.1-2.2-1.4-4.3-1-7 .4-2.3.2-4.1-.4-4.5-.8-.4-.8-1.2-.1-2.6C140.1 0 139 0 70 0H0v26.5zm67.5 28.6c1.5 1.4-.7 1-3.5-.7l-2.5-1.5 2.5.7c1.4.3 2.9 1 3.5 1.5zm-18.8 2.1c-.3.7-.5.2-.5-1.2s.2-1.9.5-1.3c.2.7.2 1.9 0 2.5zm15.1.8c7 1.3 7.3 1.5 6.7 3.8-.5 2.1-.3 2.3 1.7 1.6 1.2-.3 2.9-1.4 3.8-2.2 1.3-1.4 1.6-1.3 2.1 1.4.3 1.6.2 4.2-.3 5.9-.7 2.9-.7 3 1 1 .9-1.2 2.6-2.5 3.7-3 1.8-.8 1.8-.9-.6-1.2-2.1-.3-2.7-.9-2.5-2.9 0-1.3.6-2.4 1.1-2.5 1.1-.1 3-.5 6.3-1.5 1.7-.5 2.2-.2 2.2 1 0 1 .5 1.4 1 1.1 1.5-.9 1.2.6-.6 2.6-.9 1.1-1.1 1.9-.5 2.3.5.4 1.5-.3 2.1-1.4.6-1.1 2.4-2.7 4-3.5 3.8-1.9 5.4-1.9 1.8.1-4.4 2.3-3.3 3.4 3.4 3.4 4.3 0 6.7-.5 8-1.7 3.1-2.8 2 .1-1.2 3.2-2.5 2.4-2.8 3-1.5 3.8.8.4 2 .5 2.5.2.6-.4 1 .6 1 2.1v2.7l2.4-2.2c1.3-1.2 2.6-1.8 3-1.3.6 1-4 5.6-6.7 6.5-.9.4-2.1 1.7-2.6 3s-2.1 3.7-3.6 5.5c-2.7 3.2-1.5 4.7 1.5 1.9.7-.6.4.1-.7 1.8-1.1 1.6-1.8 3.5-1.6 4.1.5 1.4-1.6 3.2-12.8 10.9-5.2 3.6-10.2 6.5-11.2 6.5-2.7 0-13.6-10.9-17.7-17.6-1.9-3.1-3.5-7-3.6-8.6l-.2-3 2.5 2.4 2.5 2.3-2.6-5.1c-1.4-2.9-2.6-6.7-2.6-8.6 0-2.4-.8-4.2-2.5-5.8-1.4-1.3-2.5-3.1-2.4-3.9 0-1.1.2-1.2.6-.4.6 1.6 3.3 1.7 3.3.2 0-.7 1-.9 2.5-.7 1.4.3 2.5.4 2.5.2 0-.8-6.3-3.2-7.4-2.8-1.5.6-1.8-2.8-.3-3.8.6-.3 2-.3 3.1.1 1.2.4 5.4 1.4 9.4 2.1zm39 3.7c-1 .2-2.6.2-3.5 0-1-.3-.2-.5 1.7-.5s2.7.2 1.8.5zm11.2.3c0 .5-.2 1-.4 1-.3 0-.8-.5-1.1-1-.3-.6-.1-1 .4-1 .6 0 1.1.4 1.1 1zM50 83.7c0 2.2 3.7 8.9 7.2 13l3.2 3.8-4.1-3.9C52.3 92.9 48 86 46.5 81c-.8-2.5-.8-2.5 1.4-.6 1.1 1.1 2.1 2.5 2.1 3.3zm-2 10.9c0 2.7-.4 4.3-1 3.9-1.7-1.1-1.1-8.5.7-8.5.2 0 .3 2.1.3 4.6zm-.7 20.7c-.6 3.5-6.8 10.7-9.1 10.7-.9 0 .3-1.9 2.7-4.5 3.2-3.5 4.1-5.2 4.1-8.1 0-3.1.2-3.5 1.5-2.4.9.8 1.2 2.2.8 4.3zm41.3 9.7c1.5 2.8 3 4.6 3.4 4 .5-.7 1.1-.6 1.9.4.7.8 3.3 1.8 5.7 2.2 3.6.5 4.4 1 4.4 2.8 0 1.2-1.2 2.9-2.7 3.9-2.5 1.6-2.6 1.7-.5 1.2 2.1-.6 2.3-.5 1.3 1.3-2 3.7-9.3 9.2-12.5 9.3-7.3.4-19.6-2-19.6-3.8 0-.3 2.2-4 4.8-8.2 2.7-4.2 6.1-10 7.7-12.9 1.5-2.8 2.9-5.2 3.1-5.2.1 0 1.5 2.3 3 5z"/><path d="M86.3 67.4c.4 1 .7 2.2.7 2.7s.5.9 1.1.9c1.5 0 .7-4.3-1-4.8-1-.3-1.2 0-.8 1.2zM82.7 80.1c-4.6.7-5.4 1.5-4.1 3.7 1.6 2.4 3.7 2.6 6.3.4 3.5-2.8 2.4-4.9-2.2-4.1zM66 87.9c0 .5 1.1 1.6 2.5 2.5 1.4.9 2.5 2.3 2.5 3 0 1.8 6.1 5.6 8.9 5.6 1.2 0 3.2-1.1 4.5-2.5 1.3-1.4 2.8-2.5 3.5-2.5.6 0 1.1-.7 1.1-1.5s-.6-1.2-1.5-.9c-.8.3-2 .2-2.7-.2-.7-.5-4-1-7.3-1.2-3.3-.1-7-.9-8.2-1.7-2.6-1.7-3.3-1.9-3.3-.6zM80 96c1.2.8 1.2 1-.5 1-1.1 0-2.7-.5-3.5-1-1.2-.8-1.2-1 .5-1 1.1 0 2.7.5 3.5 1zM75 100.5c.7.8 2.2 1.5 3.4 1.5 2.1-.1 2.1-.1.2-1.5-2.7-2.1-5.3-2-3.6 0zM79.3 145.5c1.5 1.4 3.6 2.5 4.6 2.5 1.7 0 5.1-2.9 5.1-4.3s-2.3-.7-3.6 1c-1.2 1.7-1.4 1.7-4.2 0-4.3-2.4-5.2-2.1-1.9.8zM0 147.6c0 .6 6.2 5.9 6.9 5.9.3 0 1.2.4 2 .9.9.6 1.2.5.9-.5-.4-1.3-9.8-7.4-9.8-6.3zM18.2 151c0 1.4.2 1.9.5 1.2.2-.6.2-1.8 0-2.5-.3-.6-.5-.1-.5 1.3zM18.6 154.8c-.2.4-.1 1.4.5 2.2.7 1.2.9 1 .9-.8 0-2.3-.5-2.8-1.4-1.4zM18.8 159.7c.7.3 1.6.2 1.9-.1.4-.3-.2-.6-1.3-.5-1.1 0-1.4.3-.6.6z"/></svg>